<svg width="418" height="554" viewBox="0 0 418 554" fill="none" xmlns="http://www.w3.org/2000/svg">
<path opacity="0.2" d="M113.2 134.22L109.38 140.68L113.58 148H111.38L107.78 141.54H105.9V148H104V134.22H105.9V139.98H107.8L111.2 134.22H113.2ZM119.364 137.22C120.844 137.22 121.991 137.713 122.804 138.7C123.631 139.687 124.044 141.027 124.044 142.72C124.044 143.813 123.857 144.78 123.484 145.62C123.111 146.447 122.571 147.093 121.864 147.56C121.157 148.013 120.317 148.24 119.344 148.24C117.864 148.24 116.711 147.747 115.884 146.76C115.057 145.773 114.644 144.433 114.644 142.74C114.644 141.647 114.831 140.687 115.204 139.86C115.577 139.02 116.117 138.373 116.824 137.92C117.531 137.453 118.377 137.22 119.364 137.22ZM119.364 138.7C117.537 138.7 116.624 140.047 116.624 142.74C116.624 145.42 117.531 146.76 119.344 146.76C121.157 146.76 122.064 145.413 122.064 142.72C122.064 140.04 121.164 138.7 119.364 138.7ZM133.304 148V143.36H128.924V148H127.084V137.46H128.924V141.88H133.304V137.46H135.144V148H133.304ZM142.779 137.22C143.406 137.22 143.979 137.313 144.499 137.5C145.019 137.673 145.519 137.96 145.999 138.36L145.119 139.52C144.746 139.253 144.379 139.06 144.019 138.94C143.672 138.807 143.286 138.74 142.859 138.74C142.006 138.74 141.339 139.08 140.859 139.76C140.392 140.44 140.159 141.447 140.159 142.78C140.159 144.113 140.392 145.1 140.859 145.74C141.326 146.367 141.992 146.68 142.859 146.68C143.272 146.68 143.652 146.62 143.999 146.5C144.346 146.367 144.732 146.16 145.159 145.88L145.999 147.08C145.039 147.853 143.966 148.24 142.779 148.24C141.352 148.24 140.226 147.76 139.399 146.8C138.586 145.84 138.179 144.513 138.179 142.82C138.179 141.7 138.366 140.72 138.739 139.88C139.112 139.04 139.639 138.387 140.319 137.92C141.012 137.453 141.832 137.22 142.779 137.22ZM155.61 137.46L155.39 138.96H152.01V148H150.17V138.96H146.69V137.46H155.61ZM162.353 137.22C163.7 137.22 164.687 137.7 165.313 138.66C165.94 139.62 166.253 140.973 166.253 142.72C166.253 144.373 165.893 145.707 165.173 146.72C164.453 147.733 163.433 148.24 162.113 148.24C160.94 148.24 160.02 147.84 159.353 147.04V152.04L157.513 152.26V137.46H159.093L159.233 138.88C159.62 138.347 160.087 137.94 160.633 137.66C161.18 137.367 161.753 137.22 162.353 137.22ZM161.673 146.74C163.407 146.74 164.273 145.4 164.273 142.72C164.273 140.027 163.48 138.68 161.893 138.68C161.373 138.68 160.9 138.833 160.473 139.14C160.047 139.447 159.673 139.84 159.353 140.32V145.46C159.62 145.873 159.953 146.193 160.353 146.42C160.753 146.633 161.193 146.74 161.673 146.74ZM173.53 148.06C173.117 149.287 172.537 150.253 171.79 150.96C171.057 151.68 170.003 152.113 168.63 152.26L168.43 150.82C169.123 150.7 169.677 150.527 170.09 150.3C170.503 150.073 170.83 149.78 171.07 149.42C171.323 149.073 171.557 148.6 171.77 148H171.15L167.61 137.46H169.57L172.39 146.66L175.15 137.46H177.05L173.53 148.06ZM187.054 137.46L183.854 142.34L187.434 148H185.254L182.334 143.14H180.994V148H179.154V137.46H180.994V141.7H182.374L185.034 137.46H187.054ZM196.645 137.46L196.425 138.96H193.045V148H191.205V138.96H187.725V137.46H196.645ZM202.001 137.22C203.481 137.22 204.627 137.713 205.441 138.7C206.267 139.687 206.681 141.027 206.681 142.72C206.681 143.813 206.494 144.78 206.121 145.62C205.747 146.447 205.207 147.093 204.501 147.56C203.794 148.013 202.954 148.24 201.981 148.24C200.501 148.24 199.347 147.747 198.521 146.76C197.694 145.773 197.281 144.433 197.281 142.74C197.281 141.647 197.467 140.687 197.841 139.86C198.214 139.02 198.754 138.373 199.461 137.92C200.167 137.453 201.014 137.22 202.001 137.22ZM202.001 138.7C200.174 138.7 199.261 140.047 199.261 142.74C199.261 145.42 200.167 146.76 201.981 146.76C203.794 146.76 204.701 145.413 204.701 142.72C204.701 140.04 203.801 138.7 202.001 138.7ZM214.56 137.22C215.907 137.22 216.894 137.7 217.52 138.66C218.147 139.62 218.46 140.973 218.46 142.72C218.46 144.373 218.1 145.707 217.38 146.72C216.66 147.733 215.64 148.24 214.32 148.24C213.147 148.24 212.227 147.84 211.56 147.04V152.04L209.72 152.26V137.46H211.3L211.44 138.88C211.827 138.347 212.294 137.94 212.84 137.66C213.387 137.367 213.96 137.22 214.56 137.22ZM213.88 146.74C215.614 146.74 216.48 145.4 216.48 142.72C216.48 140.027 215.687 138.68 214.1 138.68C213.58 138.68 213.107 138.833 212.68 139.14C212.254 139.447 211.88 139.84 211.56 140.32V145.46C211.827 145.873 212.16 146.193 212.56 146.42C212.96 146.633 213.4 146.74 213.88 146.74ZM225.435 137.22C226.062 137.22 226.635 137.313 227.155 137.5C227.675 137.673 228.175 137.96 228.655 138.36L227.775 139.52C227.402 139.253 227.035 139.06 226.675 138.94C226.329 138.807 225.942 138.74 225.515 138.74C224.662 138.74 223.995 139.08 223.515 139.76C223.049 140.44 222.815 141.447 222.815 142.78C222.815 144.113 223.049 145.1 223.515 145.74C223.982 146.367 224.649 146.68 225.515 146.68C225.929 146.68 226.309 146.62 226.655 146.5C227.002 146.367 227.389 146.16 227.815 145.88L228.655 147.08C227.695 147.853 226.622 148.24 225.435 148.24C224.009 148.24 222.882 147.76 222.055 146.8C221.242 145.84 220.835 144.513 220.835 142.82C220.835 141.7 221.022 140.72 221.395 139.88C221.769 139.04 222.295 138.387 222.975 137.92C223.669 137.453 224.489 137.22 225.435 137.22ZM239.046 137.46L235.846 142.34L239.426 148H237.246L234.326 143.14H232.986V148H231.146V137.46H232.986V141.7H234.366L237.026 137.46H239.046ZM245.301 137.22C246.781 137.22 247.928 137.713 248.741 138.7C249.568 139.687 249.981 141.027 249.981 142.72C249.981 143.813 249.795 144.78 249.421 145.62C249.048 146.447 248.508 147.093 247.801 147.56C247.095 148.013 246.255 148.24 245.281 148.24C243.801 148.24 242.648 147.747 241.821 146.76C240.995 145.773 240.581 144.433 240.581 142.74C240.581 141.647 240.768 140.687 241.141 139.86C241.515 139.02 242.055 138.373 242.761 137.92C243.468 137.453 244.315 137.22 245.301 137.22ZM245.301 138.7C243.475 138.7 242.561 140.047 242.561 142.74C242.561 145.42 243.468 146.76 245.281 146.76C247.095 146.76 248.001 145.413 248.001 142.72C248.001 140.04 247.101 138.7 245.301 138.7ZM260.981 142.42C260.981 142.727 260.968 143.04 260.941 143.36H254.221C254.301 144.52 254.594 145.373 255.101 145.92C255.608 146.467 256.261 146.74 257.061 146.74C257.568 146.74 258.034 146.667 258.461 146.52C258.888 146.373 259.334 146.14 259.801 145.82L260.601 146.92C259.481 147.8 258.254 148.24 256.921 148.24C255.454 148.24 254.308 147.76 253.481 146.8C252.668 145.84 252.261 144.52 252.261 142.84C252.261 141.747 252.434 140.78 252.781 139.94C253.141 139.087 253.648 138.42 254.301 137.94C254.968 137.46 255.748 137.22 256.641 137.22C258.041 137.22 259.114 137.68 259.861 138.6C260.608 139.52 260.981 140.793 260.981 142.42ZM259.161 141.88C259.161 140.84 258.954 140.047 258.541 139.5C258.128 138.953 257.508 138.68 256.681 138.68C255.174 138.68 254.354 139.787 254.221 142H259.161V141.88ZM273.813 138.14C275.013 138.14 275.966 138.573 276.673 139.44C277.393 140.307 277.753 141.487 277.753 142.98C277.753 144.647 277.333 145.94 276.493 146.86C275.653 147.78 274.526 148.24 273.113 148.24C271.699 148.24 270.566 147.74 269.713 146.74C268.873 145.74 268.453 144.227 268.453 142.2C268.453 140.667 268.566 139.413 268.793 138.44C269.033 137.453 269.439 136.647 270.013 136.02C270.599 135.38 271.419 134.88 272.473 134.52C273.259 134.253 273.886 134.013 274.353 133.8C274.833 133.587 275.319 133.313 275.813 132.98L276.593 134.36C276.126 134.653 275.639 134.927 275.133 135.18C274.639 135.42 274.046 135.653 273.353 135.88C272.686 136.107 272.159 136.367 271.773 136.66C271.386 136.94 271.073 137.353 270.833 137.9C270.606 138.433 270.453 139.167 270.373 140.1C270.746 139.487 271.226 139.007 271.813 138.66C272.399 138.313 273.066 138.14 273.813 138.14ZM273.113 146.76C273.926 146.76 274.573 146.487 275.053 145.94C275.533 145.38 275.773 144.413 275.773 143.04C275.773 141.827 275.573 140.953 275.173 140.42C274.786 139.887 274.219 139.62 273.473 139.62C272.859 139.62 272.286 139.787 271.753 140.12C271.219 140.44 270.779 140.933 270.433 141.6V142.88C270.433 144.12 270.666 145.08 271.133 145.76C271.613 146.427 272.273 146.76 273.113 146.76ZM288.935 137.22C289.855 137.22 290.655 137.447 291.335 137.9C292.015 138.353 292.535 138.993 292.895 139.82C293.268 140.647 293.455 141.613 293.455 142.72C293.455 143.76 293.275 144.7 292.915 145.54C292.568 146.367 292.048 147.027 291.355 147.52C290.675 148 289.861 148.24 288.915 148.24C287.635 148.24 286.608 147.793 285.835 146.9C285.061 145.993 284.621 144.813 284.515 143.36H282.635V148H280.795V137.46H282.635V141.88H284.535C284.681 140.507 285.141 139.387 285.915 138.52C286.701 137.653 287.708 137.22 288.935 137.22ZM288.915 146.76C289.821 146.76 290.475 146.42 290.875 145.74C291.275 145.06 291.475 144.053 291.475 142.72C291.475 141.44 291.255 140.453 290.815 139.76C290.375 139.067 289.748 138.72 288.935 138.72C287.241 138.72 286.395 140.06 286.395 142.74C286.395 144.02 286.608 145.013 287.035 145.72C287.461 146.413 288.088 146.76 288.915 146.76ZM301.338 137.22C302.684 137.22 303.671 137.7 304.298 138.66C304.924 139.62 305.238 140.973 305.238 142.72C305.238 144.373 304.878 145.707 304.158 146.72C303.438 147.733 302.418 148.24 301.098 148.24C299.924 148.24 299.004 147.84 298.338 147.04V152.04L296.498 152.26V137.46H298.078L298.218 138.88C298.604 138.347 299.071 137.94 299.618 137.66C300.164 137.367 300.738 137.22 301.338 137.22ZM300.658 146.74C302.391 146.74 303.258 145.4 303.258 142.72C303.258 140.027 302.464 138.68 300.878 138.68C300.358 138.68 299.884 138.833 299.458 139.14C299.031 139.447 298.658 139.84 298.338 140.32V145.46C298.604 145.873 298.938 146.193 299.338 146.42C299.738 146.633 300.178 146.74 300.658 146.74ZM312.333 137.22C313.813 137.22 314.959 137.713 315.773 138.7C316.599 139.687 317.013 141.027 317.013 142.72C317.013 143.813 316.826 144.78 316.453 145.62C316.079 146.447 315.539 147.093 314.833 147.56C314.126 148.013 313.286 148.24 312.313 148.24C310.833 148.24 309.679 147.747 308.853 146.76C308.026 145.773 307.613 144.433 307.613 142.74C307.613 141.647 307.799 140.687 308.173 139.86C308.546 139.02 309.086 138.373 309.793 137.92C310.499 137.453 311.346 137.22 312.333 137.22ZM312.333 138.7C310.506 138.7 309.593 140.047 309.593 142.74C309.593 145.42 310.499 146.76 312.313 146.76C314.126 146.76 315.033 145.413 315.033 142.72C315.033 140.04 314.133 138.7 312.333 138.7Z" fill="black"/>
<path opacity="0.2" d="M150.5 264.22V278H148.6V265.84H142.9V278H141V264.22H150.5ZM159.236 267.22C160.583 267.22 161.569 267.7 162.196 268.66C162.823 269.62 163.136 270.973 163.136 272.72C163.136 274.373 162.776 275.707 162.056 276.72C161.336 277.733 160.316 278.24 158.996 278.24C157.823 278.24 156.903 277.84 156.236 277.04V282.04L154.396 282.26V267.46H155.976L156.116 268.88C156.503 268.347 156.969 267.94 157.516 267.66C158.063 267.367 158.636 267.22 159.236 267.22ZM158.556 276.74C160.289 276.74 161.156 275.4 161.156 272.72C161.156 270.027 160.363 268.68 158.776 268.68C158.256 268.68 157.783 268.833 157.356 269.14C156.929 269.447 156.556 269.84 156.236 270.32V275.46C156.503 275.873 156.836 276.193 157.236 276.42C157.636 276.633 158.076 276.74 158.556 276.74ZM173.296 267.46V278H171.456V273.96H169.156L166.936 278H164.876L167.396 273.54C166.156 272.953 165.536 272 165.536 270.68C165.536 269.64 165.909 268.847 166.656 268.3C167.402 267.74 168.449 267.46 169.796 267.46H173.296ZM171.456 272.56V268.88H169.756C168.996 268.88 168.422 269.027 168.036 269.32C167.662 269.6 167.476 270.053 167.476 270.68C167.476 271.347 167.649 271.827 167.996 272.12C168.356 272.413 168.929 272.56 169.716 272.56H171.456ZM187.411 278H185.611L185.131 273.02C185.078 272.5 185.045 271.927 185.031 271.3C185.018 270.66 185.011 269.973 185.011 269.24L182.611 276.84H180.871L178.631 269.26C178.631 271.02 178.605 272.267 178.551 273L178.171 278H176.391L177.331 267.46H179.711L181.771 275L184.031 267.46H186.451L187.411 278ZM194.469 267.22C195.949 267.22 197.096 267.713 197.909 268.7C198.736 269.687 199.149 271.027 199.149 272.72C199.149 273.813 198.963 274.78 198.589 275.62C198.216 276.447 197.676 277.093 196.969 277.56C196.263 278.013 195.423 278.24 194.449 278.24C192.969 278.24 191.816 277.747 190.989 276.76C190.163 275.773 189.749 274.433 189.749 272.74C189.749 271.647 189.936 270.687 190.309 269.86C190.683 269.02 191.223 268.373 191.929 267.92C192.636 267.453 193.483 267.22 194.469 267.22ZM194.469 268.7C192.643 268.7 191.729 270.047 191.729 272.74C191.729 275.42 192.636 276.76 194.449 276.76C196.263 276.76 197.169 275.413 197.169 272.72C197.169 270.04 196.269 268.7 194.469 268.7ZM210.149 272.42C210.149 272.727 210.136 273.04 210.109 273.36H203.389C203.469 274.52 203.762 275.373 204.269 275.92C204.776 276.467 205.429 276.74 206.229 276.74C206.736 276.74 207.202 276.667 207.629 276.52C208.056 276.373 208.502 276.14 208.969 275.82L209.769 276.92C208.649 277.8 207.422 278.24 206.089 278.24C204.622 278.24 203.476 277.76 202.649 276.8C201.836 275.84 201.429 274.52 201.429 272.84C201.429 271.747 201.602 270.78 201.949 269.94C202.309 269.087 202.816 268.42 203.469 267.94C204.136 267.46 204.916 267.22 205.809 267.22C207.209 267.22 208.282 267.68 209.029 268.6C209.776 269.52 210.149 270.793 210.149 272.42ZM208.329 271.88C208.329 270.84 208.122 270.047 207.709 269.5C207.296 268.953 206.676 268.68 205.849 268.68C204.342 268.68 203.522 269.787 203.389 272H208.329V271.88ZM224.54 278V268.96H220.22V278H218.38V267.46H226.38V278H224.54ZM237.277 275.54C237.277 275.967 237.351 276.287 237.497 276.5C237.644 276.7 237.864 276.853 238.157 276.96L237.737 278.24C237.191 278.173 236.751 278.02 236.417 277.78C236.084 277.54 235.837 277.167 235.677 276.66C234.971 277.713 233.924 278.24 232.537 278.24C231.497 278.24 230.677 277.947 230.077 277.36C229.477 276.773 229.177 276.007 229.177 275.06C229.177 273.94 229.577 273.08 230.377 272.48C231.191 271.88 232.337 271.58 233.817 271.58H235.437V270.8C235.437 270.053 235.257 269.52 234.897 269.2C234.537 268.88 233.984 268.72 233.237 268.72C232.464 268.72 231.517 268.907 230.397 269.28L229.937 267.94C231.244 267.46 232.457 267.22 233.577 267.22C234.817 267.22 235.744 267.527 236.357 268.14C236.971 268.74 237.277 269.6 237.277 270.72V275.54ZM232.957 276.86C234.011 276.86 234.837 276.313 235.437 275.22V272.8H234.057C232.111 272.8 231.137 273.52 231.137 274.96C231.137 275.587 231.291 276.06 231.597 276.38C231.904 276.7 232.357 276.86 232.957 276.86ZM245.896 267.22C247.243 267.22 248.23 267.7 248.856 268.66C249.483 269.62 249.796 270.973 249.796 272.72C249.796 274.373 249.436 275.707 248.716 276.72C247.996 277.733 246.976 278.24 245.656 278.24C244.483 278.24 243.563 277.84 242.896 277.04V282.04L241.056 282.26V267.46H242.636L242.776 268.88C243.163 268.347 243.63 267.94 244.176 267.66C244.723 267.367 245.296 267.22 245.896 267.22ZM245.216 276.74C246.95 276.74 247.816 275.4 247.816 272.72C247.816 270.027 247.023 268.68 245.436 268.68C244.916 268.68 244.443 268.833 244.016 269.14C243.59 269.447 243.216 269.84 242.896 270.32V275.46C243.163 275.873 243.496 276.193 243.896 276.42C244.296 276.633 244.736 276.74 245.216 276.74ZM259.543 267.46L259.323 268.96H255.943V278H254.103V268.96H250.623V267.46H259.543ZM267.667 278V273.36H263.287V278H261.447V267.46H263.287V271.88H267.667V267.46H269.507V278H267.667ZM281.262 272.42C281.262 272.727 281.249 273.04 281.222 273.36H274.502C274.582 274.52 274.876 275.373 275.382 275.92C275.889 276.467 276.542 276.74 277.342 276.74C277.849 276.74 278.316 276.667 278.742 276.52C279.169 276.373 279.616 276.14 280.082 275.82L280.882 276.92C279.762 277.8 278.536 278.24 277.202 278.24C275.736 278.24 274.589 277.76 273.762 276.8C272.949 275.84 272.542 274.52 272.542 272.84C272.542 271.747 272.716 270.78 273.062 269.94C273.422 269.087 273.929 268.42 274.582 267.94C275.249 267.46 276.029 267.22 276.922 267.22C278.322 267.22 279.396 267.68 280.142 268.6C280.889 269.52 281.262 270.793 281.262 272.42ZM279.442 271.88C279.442 270.84 279.236 270.047 278.822 269.5C278.409 268.953 277.789 268.68 276.962 268.68C275.456 268.68 274.636 269.787 274.502 272H279.442V271.88ZM289.041 267.22C290.387 267.22 291.374 267.7 292.001 268.66C292.627 269.62 292.941 270.973 292.941 272.72C292.941 274.373 292.581 275.707 291.861 276.72C291.141 277.733 290.121 278.24 288.801 278.24C287.627 278.24 286.707 277.84 286.041 277.04V282.04L284.201 282.26V267.46H285.781L285.921 268.88C286.307 268.347 286.774 267.94 287.321 267.66C287.867 267.367 288.441 267.22 289.041 267.22ZM288.361 276.74C290.094 276.74 290.961 275.4 290.961 272.72C290.961 270.027 290.167 268.68 288.581 268.68C288.061 268.68 287.587 268.833 287.161 269.14C286.734 269.447 286.361 269.84 286.041 270.32V275.46C286.307 275.873 286.641 276.193 287.041 276.42C287.441 276.633 287.881 276.74 288.361 276.74ZM299.916 267.22C300.542 267.22 301.116 267.313 301.636 267.5C302.156 267.673 302.656 267.96 303.136 268.36L302.256 269.52C301.882 269.253 301.516 269.06 301.156 268.94C300.809 268.807 300.422 268.74 299.996 268.74C299.142 268.74 298.476 269.08 297.996 269.76C297.529 270.44 297.296 271.447 297.296 272.78C297.296 274.113 297.529 275.1 297.996 275.74C298.462 276.367 299.129 276.68 299.996 276.68C300.409 276.68 300.789 276.62 301.136 276.5C301.482 276.367 301.869 276.16 302.296 275.88L303.136 277.08C302.176 277.853 301.102 278.24 299.916 278.24C298.489 278.24 297.362 277.76 296.536 276.8C295.722 275.84 295.316 274.513 295.316 272.82C295.316 271.7 295.502 270.72 295.876 269.88C296.249 269.04 296.776 268.387 297.456 267.92C298.149 267.453 298.969 267.22 299.916 267.22ZM312.747 267.46L312.527 268.96H309.147V278H307.307V268.96H303.827V267.46H312.747ZM320.21 272.28C321.997 272.453 322.89 273.28 322.89 274.76C322.89 275.867 322.483 276.687 321.67 277.22C320.87 277.74 319.797 278 318.45 278H314.65V267.6C315.89 267.347 317.043 267.22 318.11 267.22C319.417 267.22 320.45 267.467 321.21 267.96C321.97 268.453 322.35 269.16 322.35 270.08C322.35 270.68 322.17 271.167 321.81 271.54C321.45 271.913 320.917 272.16 320.21 272.28ZM318.13 268.64C317.57 268.64 317.023 268.68 316.49 268.76V271.74H318.47C319.11 271.74 319.603 271.62 319.95 271.38C320.297 271.14 320.47 270.733 320.47 270.16C320.47 269.627 320.277 269.24 319.89 269C319.503 268.76 318.917 268.64 318.13 268.64ZM318.45 276.56C319.237 276.56 319.85 276.427 320.29 276.16C320.73 275.893 320.95 275.413 320.95 274.72C320.95 274.147 320.763 273.733 320.39 273.48C320.017 273.227 319.383 273.1 318.49 273.1H316.49V276.56H318.45ZM329.821 267.22C331.301 267.22 332.448 267.713 333.261 268.7C334.088 269.687 334.501 271.027 334.501 272.72C334.501 273.813 334.314 274.78 333.941 275.62C333.568 276.447 333.028 277.093 332.321 277.56C331.614 278.013 330.774 278.24 329.801 278.24C328.321 278.24 327.168 277.747 326.341 276.76C325.514 275.773 325.101 274.433 325.101 272.74C325.101 271.647 325.288 270.687 325.661 269.86C326.034 269.02 326.574 268.373 327.281 267.92C327.988 267.453 328.834 267.22 329.821 267.22ZM329.821 268.7C327.994 268.7 327.081 270.047 327.081 272.74C327.081 275.42 327.988 276.76 329.801 276.76C331.614 276.76 332.521 275.413 332.521 272.72C332.521 270.04 331.621 268.7 329.821 268.7ZM144.74 289.22C145.367 289.22 145.94 289.313 146.46 289.5C146.98 289.673 147.48 289.96 147.96 290.36L147.08 291.52C146.707 291.253 146.34 291.06 145.98 290.94C145.633 290.807 145.247 290.74 144.82 290.74C143.967 290.74 143.3 291.08 142.82 291.76C142.353 292.44 142.12 293.447 142.12 294.78C142.12 296.113 142.353 297.1 142.82 297.74C143.287 298.367 143.953 298.68 144.82 298.68C145.233 298.68 145.613 298.62 145.96 298.5C146.307 298.367 146.693 298.16 147.12 297.88L147.96 299.08C147 299.853 145.927 300.24 144.74 300.24C143.313 300.24 142.187 299.76 141.36 298.8C140.547 297.84 140.14 296.513 140.14 294.82C140.14 293.7 140.327 292.72 140.7 291.88C141.073 291.04 141.6 290.387 142.28 289.92C142.973 289.453 143.793 289.22 144.74 289.22ZM164.204 298.52V303H162.704L162.404 300H155.644L155.344 303H153.844V298.52H154.584C154.904 298.307 155.157 298.067 155.344 297.8C155.53 297.52 155.697 297.04 155.844 296.36C156.004 295.68 156.13 294.687 156.224 293.38L156.504 289.46H163.104V298.52H164.204ZM161.264 290.92H158.164L158.004 293.14C157.91 294.38 157.804 295.333 157.684 296C157.564 296.667 157.39 297.18 157.164 297.54C156.95 297.9 156.637 298.227 156.224 298.52H161.264V290.92ZM175.096 300H173.276V295.24C173.276 294.44 173.303 293.68 173.356 292.96C173.409 292.24 173.456 291.767 173.496 291.54L169.076 300H166.896V289.46H168.716V294.22C168.716 294.927 168.689 295.66 168.636 296.42C168.583 297.167 168.543 297.647 168.516 297.86L172.876 289.46H175.096V300ZM182.728 289.22C183.355 289.22 183.928 289.313 184.448 289.5C184.968 289.673 185.468 289.96 185.948 290.36L185.068 291.52C184.695 291.253 184.328 291.06 183.968 290.94C183.622 290.807 183.235 290.74 182.808 290.74C181.955 290.74 181.288 291.08 180.808 291.76C180.342 292.44 180.108 293.447 180.108 294.78C180.108 296.113 180.342 297.1 180.808 297.74C181.275 298.367 181.942 298.68 182.808 298.68C183.222 298.68 183.602 298.62 183.948 298.5C184.295 298.367 184.682 298.16 185.108 297.88L185.948 299.08C184.988 299.853 183.915 300.24 182.728 300.24C181.302 300.24 180.175 299.76 179.348 298.8C178.535 297.84 178.128 296.513 178.128 294.82C178.128 293.7 178.315 292.72 178.688 291.88C179.062 291.04 179.588 290.387 180.268 289.92C180.962 289.453 181.782 289.22 182.728 289.22ZM195.559 289.46L195.339 290.96H191.959V300H190.119V290.96H186.639V289.46H195.559ZM202.303 289.22C203.649 289.22 204.636 289.7 205.263 290.66C205.889 291.62 206.203 292.973 206.203 294.72C206.203 296.373 205.843 297.707 205.123 298.72C204.403 299.733 203.383 300.24 202.063 300.24C200.889 300.24 199.969 299.84 199.303 299.04V304.04L197.463 304.26V289.46H199.043L199.183 290.88C199.569 290.347 200.036 289.94 200.583 289.66C201.129 289.367 201.703 289.22 202.303 289.22ZM201.623 298.74C203.356 298.74 204.223 297.4 204.223 294.72C204.223 292.027 203.429 290.68 201.843 290.68C201.323 290.68 200.849 290.833 200.423 291.14C199.996 291.447 199.623 291.84 199.303 292.32V297.46C199.569 297.873 199.903 298.193 200.303 298.42C200.703 298.633 201.143 298.74 201.623 298.74ZM217.537 300H215.718V295.24C215.718 294.44 215.744 293.68 215.798 292.96C215.851 292.24 215.898 291.767 215.938 291.54L211.518 300H209.338V289.46H211.158V294.22C211.158 294.927 211.131 295.66 211.078 296.42C211.024 297.167 210.984 297.647 210.958 297.86L215.318 289.46H217.537V300ZM225.93 290.14C227.13 290.14 228.083 290.573 228.79 291.44C229.51 292.307 229.87 293.487 229.87 294.98C229.87 296.647 229.45 297.94 228.61 298.86C227.77 299.78 226.643 300.24 225.23 300.24C223.816 300.24 222.683 299.74 221.83 298.74C220.99 297.74 220.57 296.227 220.57 294.2C220.57 292.667 220.683 291.413 220.91 290.44C221.15 289.453 221.556 288.647 222.13 288.02C222.716 287.38 223.536 286.88 224.59 286.52C225.376 286.253 226.003 286.013 226.47 285.8C226.95 285.587 227.436 285.313 227.93 284.98L228.71 286.36C228.243 286.653 227.756 286.927 227.25 287.18C226.756 287.42 226.163 287.653 225.47 287.88C224.803 288.107 224.276 288.367 223.89 288.66C223.503 288.94 223.19 289.353 222.95 289.9C222.723 290.433 222.57 291.167 222.49 292.1C222.863 291.487 223.343 291.007 223.93 290.66C224.516 290.313 225.183 290.14 225.93 290.14ZM225.23 298.76C226.043 298.76 226.69 298.487 227.17 297.94C227.65 297.38 227.89 296.413 227.89 295.04C227.89 293.827 227.69 292.953 227.29 292.42C226.903 291.887 226.336 291.62 225.59 291.62C224.976 291.62 224.403 291.787 223.87 292.12C223.336 292.44 222.896 292.933 222.55 293.6V294.88C222.55 296.12 222.783 297.08 223.25 297.76C223.73 298.427 224.39 298.76 225.23 298.76ZM236.152 292.86C237.725 292.86 238.865 293.167 239.572 293.78C240.278 294.393 240.632 295.267 240.632 296.4C240.632 297.587 240.232 298.487 239.432 299.1C238.645 299.7 237.665 300 236.492 300H232.912V289.46H234.752V292.86H236.152ZM236.332 298.56C237.078 298.56 237.652 298.393 238.052 298.06C238.465 297.727 238.672 297.173 238.672 296.4C238.672 295.667 238.478 295.127 238.092 294.78C237.718 294.433 237.065 294.26 236.132 294.26H234.752V298.56H236.332ZM251.364 289.22C252.284 289.22 253.084 289.447 253.764 289.9C254.444 290.353 254.964 290.993 255.324 291.82C255.698 292.647 255.884 293.613 255.884 294.72C255.884 295.76 255.704 296.7 255.344 297.54C254.998 298.367 254.478 299.027 253.784 299.52C253.104 300 252.291 300.24 251.344 300.24C250.064 300.24 249.038 299.793 248.264 298.9C247.491 297.993 247.051 296.813 246.944 295.36H245.064V300H243.224V289.46H245.064V293.88H246.964C247.111 292.507 247.571 291.387 248.344 290.52C249.131 289.653 250.138 289.22 251.364 289.22ZM251.344 298.76C252.251 298.76 252.904 298.42 253.304 297.74C253.704 297.06 253.904 296.053 253.904 294.72C253.904 293.44 253.684 292.453 253.244 291.76C252.804 291.067 252.178 290.72 251.364 290.72C249.671 290.72 248.824 292.06 248.824 294.74C248.824 296.02 249.038 297.013 249.464 297.72C249.891 298.413 250.518 298.76 251.344 298.76ZM265.54 289.46L265.32 290.96H261.94V300H260.1V290.96H256.62V289.46H265.54ZM274.895 294.42C274.895 294.727 274.882 295.04 274.855 295.36H268.135C268.215 296.52 268.508 297.373 269.015 297.92C269.522 298.467 270.175 298.74 270.975 298.74C271.482 298.74 271.948 298.667 272.375 298.52C272.802 298.373 273.248 298.14 273.715 297.82L274.515 298.92C273.395 299.8 272.168 300.24 270.835 300.24C269.368 300.24 268.222 299.76 267.395 298.8C266.582 297.84 266.175 296.52 266.175 294.84C266.175 293.747 266.348 292.78 266.695 291.94C267.055 291.087 267.562 290.42 268.215 289.94C268.882 289.46 269.662 289.22 270.555 289.22C271.955 289.22 273.028 289.68 273.775 290.6C274.522 291.52 274.895 292.793 274.895 294.42ZM273.075 293.88C273.075 292.84 272.868 292.047 272.455 291.5C272.042 290.953 271.422 290.68 270.595 290.68C269.088 290.68 268.268 291.787 268.135 294H273.075V293.88ZM282.674 289.22C284.02 289.22 285.007 289.7 285.634 290.66C286.26 291.62 286.574 292.973 286.574 294.72C286.574 296.373 286.214 297.707 285.494 298.72C284.774 299.733 283.754 300.24 282.434 300.24C281.26 300.24 280.34 299.84 279.674 299.04V304.04L277.834 304.26V289.46H279.414L279.554 290.88C279.94 290.347 280.407 289.94 280.954 289.66C281.5 289.367 282.074 289.22 282.674 289.22ZM281.994 298.74C283.727 298.74 284.594 297.4 284.594 294.72C284.594 292.027 283.8 290.68 282.214 290.68C281.694 290.68 281.22 290.833 280.794 291.14C280.367 291.447 279.994 291.84 279.674 292.32V297.46C279.94 297.873 280.274 298.193 280.674 298.42C281.074 298.633 281.514 298.74 281.994 298.74ZM296.613 297.54C296.613 297.967 296.687 298.287 296.833 298.5C296.98 298.7 297.2 298.853 297.493 298.96L297.073 300.24C296.527 300.173 296.087 300.02 295.753 299.78C295.42 299.54 295.173 299.167 295.013 298.66C294.307 299.713 293.26 300.24 291.873 300.24C290.833 300.24 290.013 299.947 289.413 299.36C288.813 298.773 288.513 298.007 288.513 297.06C288.513 295.94 288.913 295.08 289.713 294.48C290.527 293.88 291.673 293.58 293.153 293.58H294.773V292.8C294.773 292.053 294.593 291.52 294.233 291.2C293.873 290.88 293.32 290.72 292.573 290.72C291.8 290.72 290.853 290.907 289.733 291.28L289.273 289.94C290.58 289.46 291.793 289.22 292.913 289.22C294.153 289.22 295.08 289.527 295.693 290.14C296.307 290.74 296.613 291.6 296.613 292.72V297.54ZM292.293 298.86C293.347 298.86 294.173 298.313 294.773 297.22V294.8H293.393C291.447 294.8 290.473 295.52 290.473 296.96C290.473 297.587 290.627 298.06 290.933 298.38C291.24 298.7 291.693 298.86 292.293 298.86ZM310.712 300H308.912L308.432 295.02C308.379 294.5 308.346 293.927 308.332 293.3C308.319 292.66 308.312 291.973 308.312 291.24L305.912 298.84H304.172L301.932 291.26C301.932 293.02 301.906 294.267 301.852 295L301.472 300H299.692L300.632 289.46H303.012L305.072 297L307.332 289.46H309.752L310.712 300ZM322.01 300H320.19V295.24C320.19 294.44 320.217 293.68 320.27 292.96C320.323 292.24 320.37 291.767 320.41 291.54L315.99 300H313.81V289.46H315.63V294.22C315.63 294.927 315.603 295.66 315.55 296.42C315.497 297.167 315.457 297.647 315.43 297.86L319.79 289.46H322.01V300Z" fill="black"/>
<path opacity="0.2" d="M116.5 410.22V424H114.6V411.84H108.9V424H107V410.22H116.5ZM124.356 413.22C125.836 413.22 126.983 413.713 127.796 414.7C128.623 415.687 129.036 417.027 129.036 418.72C129.036 419.813 128.849 420.78 128.476 421.62C128.103 422.447 127.563 423.093 126.856 423.56C126.149 424.013 125.309 424.24 124.336 424.24C122.856 424.24 121.703 423.747 120.876 422.76C120.049 421.773 119.636 420.433 119.636 418.74C119.636 417.647 119.823 416.687 120.196 415.86C120.569 415.02 121.109 414.373 121.816 413.92C122.523 413.453 123.369 413.22 124.356 413.22ZM124.356 414.7C122.529 414.7 121.616 416.047 121.616 418.74C121.616 421.42 122.523 422.76 124.336 422.76C126.149 422.76 127.056 421.413 127.056 418.72C127.056 416.04 126.156 414.7 124.356 414.7ZM135.916 413.22C136.542 413.22 137.116 413.313 137.636 413.5C138.156 413.673 138.656 413.96 139.136 414.36L138.256 415.52C137.882 415.253 137.516 415.06 137.156 414.94C136.809 414.807 136.422 414.74 135.996 414.74C135.142 414.74 134.476 415.08 133.996 415.76C133.529 416.44 133.296 417.447 133.296 418.78C133.296 420.113 133.529 421.1 133.996 421.74C134.462 422.367 135.129 422.68 135.996 422.68C136.409 422.68 136.789 422.62 137.136 422.5C137.482 422.367 137.869 422.16 138.296 421.88L139.136 423.08C138.176 423.853 137.102 424.24 135.916 424.24C134.489 424.24 133.362 423.76 132.536 422.8C131.722 421.84 131.316 420.513 131.316 418.82C131.316 417.7 131.502 416.72 131.876 415.88C132.249 415.04 132.776 414.387 133.456 413.92C134.149 413.453 134.969 413.22 135.916 413.22ZM148.747 413.46L148.527 414.96H145.147V424H143.307V414.96H139.827V413.46H148.747ZM154.102 413.22C155.582 413.22 156.729 413.713 157.542 414.7C158.369 415.687 158.782 417.027 158.782 418.72C158.782 419.813 158.596 420.78 158.222 421.62C157.849 422.447 157.309 423.093 156.602 423.56C155.896 424.013 155.056 424.24 154.082 424.24C152.602 424.24 151.449 423.747 150.622 422.76C149.796 421.773 149.382 420.433 149.382 418.74C149.382 417.647 149.569 416.687 149.942 415.86C150.316 415.02 150.856 414.373 151.562 413.92C152.269 413.453 153.116 413.22 154.102 413.22ZM154.102 414.7C152.276 414.7 151.362 416.047 151.362 418.74C151.362 421.42 152.269 422.76 154.082 422.76C155.896 422.76 156.802 421.413 156.802 418.72C156.802 416.04 155.902 414.7 154.102 414.7ZM168.847 413.46V424H167.007V419.96H164.707L162.487 424H160.427L162.947 419.54C161.707 418.953 161.087 418 161.087 416.68C161.087 415.64 161.46 414.847 162.207 414.3C162.953 413.74 164 413.46 165.347 413.46H168.847ZM167.007 418.56V414.88H165.307C164.547 414.88 163.973 415.027 163.587 415.32C163.213 415.6 163.027 416.053 163.027 416.68C163.027 417.347 163.2 417.827 163.547 418.12C163.907 418.413 164.48 418.56 165.267 418.56H167.007ZM178.862 424V419.36H174.482V424H172.642V413.46H174.482V417.88H178.862V413.46H180.702V424H178.862ZM190.718 424V419.36H186.338V424H184.498V413.46H186.338V417.88H190.718V413.46H192.558V424H190.718ZM200.313 413.22C201.793 413.22 202.94 413.713 203.753 414.7C204.58 415.687 204.993 417.027 204.993 418.72C204.993 419.813 204.806 420.78 204.433 421.62C204.06 422.447 203.52 423.093 202.813 423.56C202.106 424.013 201.266 424.24 200.293 424.24C198.813 424.24 197.66 423.747 196.833 422.76C196.006 421.773 195.593 420.433 195.593 418.74C195.593 417.647 195.78 416.687 196.153 415.86C196.526 415.02 197.066 414.373 197.773 413.92C198.48 413.453 199.326 413.22 200.313 413.22ZM200.313 414.7C198.486 414.7 197.573 416.047 197.573 418.74C197.573 421.42 198.48 422.76 200.293 422.76C202.106 422.76 203.013 421.413 203.013 418.72C203.013 416.04 202.113 414.7 200.313 414.7ZM215.993 418.42C215.993 418.727 215.979 419.04 215.953 419.36H209.233C209.313 420.52 209.606 421.373 210.113 421.92C210.619 422.467 211.273 422.74 212.073 422.74C212.579 422.74 213.046 422.667 213.473 422.52C213.899 422.373 214.346 422.14 214.813 421.82L215.613 422.92C214.493 423.8 213.266 424.24 211.933 424.24C210.466 424.24 209.319 423.76 208.493 422.8C207.679 421.84 207.273 420.52 207.273 418.84C207.273 417.747 207.446 416.78 207.793 415.94C208.153 415.087 208.659 414.42 209.313 413.94C209.979 413.46 210.759 413.22 211.653 413.22C213.053 413.22 214.126 413.68 214.873 414.6C215.619 415.52 215.993 416.793 215.993 418.42ZM214.173 417.88C214.173 416.84 213.966 416.047 213.553 415.5C213.139 414.953 212.519 414.68 211.693 414.68C210.186 414.68 209.366 415.787 209.233 418H214.173V417.88ZM228.444 424.06C228.031 425.287 227.451 426.253 226.704 426.96C225.971 427.68 224.918 428.113 223.544 428.26L223.344 426.82C224.038 426.7 224.591 426.527 225.004 426.3C225.418 426.073 225.744 425.78 225.984 425.42C226.238 425.073 226.471 424.6 226.684 424H226.064L222.524 413.46H224.484L227.304 422.66L230.064 413.46H231.964L228.444 424.06ZM241.573 413.46V424H239.733V414.96H236.473L236.173 418.48C236.053 419.907 235.9 420.973 235.713 421.68C235.54 422.387 235.26 422.933 234.873 423.32C234.5 423.693 233.926 424 233.153 424.24L232.693 422.78C233.146 422.62 233.466 422.413 233.653 422.16C233.84 421.907 233.98 421.52 234.073 421C234.166 420.48 234.266 419.573 234.373 418.28L234.793 413.46H241.573ZM249.597 424.06C249.183 425.287 248.603 426.253 247.857 426.96C247.123 427.68 246.07 428.113 244.697 428.26L244.497 426.82C245.19 426.7 245.743 426.527 246.157 426.3C246.57 426.073 246.897 425.78 247.137 425.42C247.39 425.073 247.623 424.6 247.837 424H247.217L243.677 413.46H245.637L248.457 422.66L251.217 413.46H253.117L249.597 424.06ZM262.46 413.46V424H260.62V419.6C260.234 419.96 259.754 420.247 259.18 420.46C258.62 420.66 258.04 420.76 257.44 420.76C256.44 420.76 255.687 420.493 255.18 419.96C254.674 419.413 254.42 418.64 254.42 417.64V413.46H256.26V417.42C256.26 418.087 256.394 418.573 256.66 418.88C256.94 419.173 257.367 419.32 257.94 419.32C258.407 419.32 258.894 419.213 259.4 419C259.92 418.787 260.327 418.513 260.62 418.18V413.46H262.46ZM278.375 413.46V424H266.255V413.46H268.055V422.52H271.435V413.46H273.195V422.52H276.575V413.46H278.375ZM290.133 418.42C290.133 418.727 290.12 419.04 290.093 419.36H283.373C283.453 420.52 283.747 421.373 284.253 421.92C284.76 422.467 285.413 422.74 286.213 422.74C286.72 422.74 287.187 422.667 287.613 422.52C288.04 422.373 288.487 422.14 288.953 421.82L289.753 422.92C288.633 423.8 287.407 424.24 286.073 424.24C284.607 424.24 283.46 423.76 282.633 422.8C281.82 421.84 281.413 420.52 281.413 418.84C281.413 417.747 281.587 416.78 281.933 415.94C282.293 415.087 282.8 414.42 283.453 413.94C284.12 413.46 284.9 413.22 285.793 413.22C287.193 413.22 288.267 413.68 289.013 414.6C289.76 415.52 290.133 416.793 290.133 418.42ZM288.313 417.88C288.313 416.84 288.107 416.047 287.693 415.5C287.28 414.953 286.66 414.68 285.833 414.68C284.327 414.68 283.507 415.787 283.373 418H288.313V417.88ZM299.292 424V419.36H294.912V424H293.072V413.46H294.912V417.88H299.292V413.46H301.132V424H299.292ZM313.127 424H311.307V419.24C311.307 418.44 311.334 417.68 311.387 416.96C311.441 416.24 311.487 415.767 311.527 415.54L307.107 424H304.927V413.46H306.747V418.22C306.747 418.927 306.721 419.66 306.667 420.42C306.614 421.167 306.574 421.647 306.547 421.86L310.907 413.46H313.127V424ZM324.88 418.42C324.88 418.727 324.866 419.04 324.84 419.36H318.12C318.2 420.52 318.493 421.373 319 421.92C319.506 422.467 320.16 422.74 320.96 422.74C321.466 422.74 321.933 422.667 322.36 422.52C322.786 422.373 323.233 422.14 323.7 421.82L324.5 422.92C323.38 423.8 322.153 424.24 320.82 424.24C319.353 424.24 318.206 423.76 317.38 422.8C316.566 421.84 316.16 420.52 316.16 418.84C316.16 417.747 316.333 416.78 316.68 415.94C317.04 415.087 317.546 414.42 318.2 413.94C318.866 413.46 319.646 413.22 320.54 413.22C321.94 413.22 323.013 413.68 323.76 414.6C324.506 415.52 324.88 416.793 324.88 418.42ZM323.06 417.88C323.06 416.84 322.853 416.047 322.44 415.5C322.026 414.953 321.406 414.68 320.58 414.68C319.073 414.68 318.253 415.787 318.12 418H323.06V417.88ZM114.02 435.46L113.8 436.96H110.42V446H108.58V436.96H105.1V435.46H114.02ZM123.376 440.42C123.376 440.727 123.362 441.04 123.336 441.36H116.616C116.696 442.52 116.989 443.373 117.496 443.92C118.002 444.467 118.656 444.74 119.456 444.74C119.962 444.74 120.429 444.667 120.856 444.52C121.282 444.373 121.729 444.14 122.196 443.82L122.996 444.92C121.876 445.8 120.649 446.24 119.316 446.24C117.849 446.24 116.702 445.76 115.876 444.8C115.062 443.84 114.656 442.52 114.656 440.84C114.656 439.747 114.829 438.78 115.176 437.94C115.536 437.087 116.042 436.42 116.696 435.94C117.362 435.46 118.142 435.22 119.036 435.22C120.436 435.22 121.509 435.68 122.256 436.6C123.002 437.52 123.376 438.793 123.376 440.42ZM121.556 439.88C121.556 438.84 121.349 438.047 120.936 437.5C120.522 436.953 119.902 436.68 119.076 436.68C117.569 436.68 116.749 437.787 116.616 440H121.556V439.88ZM130.178 440.36L133.838 446H131.618L129.038 441.54L126.418 446H124.338L128.018 440.44L124.758 435.46H126.918L129.118 439.32L131.338 435.46H133.418L130.178 440.36ZM142.065 446V441.36H137.685V446H135.845V435.46H137.685V439.88H142.065V435.46H143.905V446H142.065ZM151.661 435.22C153.141 435.22 154.287 435.713 155.101 436.7C155.927 437.687 156.341 439.027 156.341 440.72C156.341 441.813 156.154 442.78 155.781 443.62C155.407 444.447 154.867 445.093 154.161 445.56C153.454 446.013 152.614 446.24 151.641 446.24C150.161 446.24 149.007 445.747 148.181 444.76C147.354 443.773 146.941 442.433 146.941 440.74C146.941 439.647 147.127 438.687 147.501 437.86C147.874 437.02 148.414 436.373 149.121 435.92C149.827 435.453 150.674 435.22 151.661 435.22ZM151.661 436.7C149.834 436.7 148.921 438.047 148.921 440.74C148.921 443.42 149.827 444.76 151.641 444.76C153.454 444.76 154.361 443.413 154.361 440.72C154.361 438.04 153.461 436.7 151.661 436.7ZM166.905 435.46V446H165.065V436.96H161.805L161.505 440.48C161.385 441.907 161.232 442.973 161.045 443.68C160.872 444.387 160.592 444.933 160.205 445.32C159.832 445.693 159.258 446 158.485 446.24L158.025 444.78C158.478 444.62 158.798 444.413 158.985 444.16C159.172 443.907 159.312 443.52 159.405 443C159.498 442.48 159.598 441.573 159.705 440.28L160.125 435.46H166.905ZM174.669 435.22C176.149 435.22 177.295 435.713 178.109 436.7C178.935 437.687 179.349 439.027 179.349 440.72C179.349 441.813 179.162 442.78 178.789 443.62C178.415 444.447 177.875 445.093 177.169 445.56C176.462 446.013 175.622 446.24 174.649 446.24C173.169 446.24 172.015 445.747 171.189 444.76C170.362 443.773 169.949 442.433 169.949 440.74C169.949 439.647 170.135 438.687 170.509 437.86C170.882 437.02 171.422 436.373 172.129 435.92C172.835 435.453 173.682 435.22 174.669 435.22ZM174.669 436.7C172.842 436.7 171.929 438.047 171.929 440.74C171.929 443.42 172.835 444.76 174.649 444.76C176.462 444.76 177.369 443.413 177.369 440.72C177.369 438.04 176.469 436.7 174.669 436.7ZM184.228 446H182.388V435.46H188.968L188.728 436.98H184.228V446ZM199.162 446H197.343V441.24C197.343 440.44 197.369 439.68 197.423 438.96C197.476 438.24 197.523 437.767 197.563 437.54L193.143 446H190.963V435.46H192.783V440.22C192.783 440.927 192.756 441.66 192.703 442.42C192.649 443.167 192.609 443.647 192.583 443.86L196.943 435.46H199.162V446ZM211.155 446H209.335V441.24C209.335 440.44 209.361 439.68 209.415 438.96C209.468 438.24 209.515 437.767 209.555 437.54L205.135 446H202.955V435.46H204.775V440.22C204.775 440.927 204.748 441.66 204.695 442.42C204.641 443.167 204.601 443.647 204.575 443.86L208.935 435.46H211.155V446Z" fill="black"/>
<path opacity="0.2" d="M7.82 534.98C8.64667 534.98 9.34 535.087 9.9 535.3C10.4733 535.513 11.0533 535.86 11.64 536.34L10.6 537.56C9.76 536.88 8.87333 536.54 7.94 536.54C6.79333 536.54 5.86667 536.98 5.16 537.86C4.46667 538.74 4.12 540.153 4.12 542.1C4.12 543.993 4.46667 545.393 5.16 546.3C5.85333 547.193 6.77333 547.64 7.92 547.64C8.50667 547.64 9.02 547.54 9.46 547.34C9.9 547.14 10.3667 546.86 10.86 546.5L11.8 547.7C11.3733 548.14 10.8267 548.507 10.16 548.8C9.49333 549.093 8.72667 549.24 7.86 549.24C6.74 549.24 5.74 548.967 4.86 548.42C3.99333 547.86 3.31333 547.047 2.82 545.98C2.34 544.9 2.1 543.607 2.1 542.1C2.1 540.593 2.35333 539.307 2.86 538.24C3.36667 537.16 4.05333 536.347 4.92 535.8C5.78667 535.253 6.75333 534.98 7.82 534.98ZM21.6608 543.42C21.6608 543.727 21.6474 544.04 21.6208 544.36H14.9008C14.9808 545.52 15.2741 546.373 15.7808 546.92C16.2874 547.467 16.9408 547.74 17.7408 547.74C18.2474 547.74 18.7141 547.667 19.1408 547.52C19.5674 547.373 20.0141 547.14 20.4808 546.82L21.2808 547.92C20.1608 548.8 18.9341 549.24 17.6008 549.24C16.1341 549.24 14.9874 548.76 14.1608 547.8C13.3474 546.84 12.9408 545.52 12.9408 543.84C12.9408 542.747 13.1141 541.78 13.4608 540.94C13.8208 540.087 14.3274 539.42 14.9808 538.94C15.6474 538.46 16.4274 538.22 17.3208 538.22C18.7208 538.22 19.7941 538.68 20.5408 539.6C21.2874 540.52 21.6608 541.793 21.6608 543.42ZM19.8408 542.88C19.8408 541.84 19.6341 541.047 19.2208 540.5C18.8074 539.953 18.1874 539.68 17.3608 539.68C15.8541 539.68 15.0341 540.787 14.9008 543H19.8408V542.88ZM29.4392 538.22C30.7859 538.22 31.7726 538.7 32.3992 539.66C33.0259 540.62 33.3392 541.973 33.3392 543.72C33.3392 545.373 32.9792 546.707 32.2592 547.72C31.5392 548.733 30.5192 549.24 29.1992 549.24C28.0259 549.24 27.1059 548.84 26.4392 548.04V553.04L24.5992 553.26V538.46H26.1792L26.3192 539.88C26.7059 539.347 27.1726 538.94 27.7192 538.66C28.2659 538.367 28.8392 538.22 29.4392 538.22ZM28.7592 547.74C30.4926 547.74 31.3592 546.4 31.3592 543.72C31.3592 541.027 30.5659 539.68 28.9792 539.68C28.4592 539.68 27.9859 539.833 27.5592 540.14C27.1326 540.447 26.7592 540.84 26.4392 541.32V546.46C26.7059 546.873 27.0392 547.193 27.4392 547.42C27.8392 547.633 28.2792 547.74 28.7592 547.74ZM43.0864 538.46L42.8664 539.96H39.4864V549H37.6464V539.96H34.1664V538.46H43.0864ZM53.1898 549H51.3698V544.24C51.3698 543.44 51.3965 542.68 51.4498 541.96C51.5032 541.24 51.5498 540.767 51.5898 540.54L47.1698 549H44.9898V538.46H46.8098V543.22C46.8098 543.927 46.7832 544.66 46.7298 545.42C46.6765 546.167 46.6365 546.647 46.6098 546.86L50.9698 538.46H53.1898V549ZM66.582 538.22C67.862 538.22 68.7754 538.693 69.322 539.64C69.882 540.587 70.162 541.947 70.162 543.72C70.162 545.4 69.842 546.74 69.202 547.74C68.562 548.74 67.6754 549.24 66.542 549.24C65.542 549.24 64.7354 548.793 64.122 547.9V553.04L62.362 553.26V547.9C62.0687 548.327 61.6954 548.66 61.242 548.9C60.7887 549.127 60.302 549.24 59.782 549.24C58.7154 549.24 57.8687 548.74 57.242 547.74C56.6287 546.74 56.322 545.4 56.322 543.72C56.322 541.96 56.5887 540.607 57.122 539.66C57.6687 538.7 58.562 538.22 59.802 538.22C60.882 538.22 61.7354 538.607 62.362 539.38V534L64.122 534.22V539.42C64.7354 538.62 65.5554 538.22 66.582 538.22ZM60.202 547.78C60.6287 547.78 61.022 547.667 61.382 547.44C61.7554 547.2 62.082 546.873 62.362 546.46V540.88C61.762 540.08 61.0354 539.68 60.182 539.68C59.5687 539.68 59.102 540.02 58.782 540.7C58.462 541.367 58.302 542.373 58.302 543.72C58.302 545.067 58.4687 546.08 58.802 546.76C59.1354 547.44 59.602 547.78 60.202 547.78ZM66.202 547.78C66.8287 547.78 67.3154 547.44 67.662 546.76C68.0087 546.08 68.182 545.067 68.182 543.72C68.182 541.027 67.522 539.68 66.202 539.68C65.362 539.68 64.6687 540.093 64.122 540.92V546.48C64.402 546.907 64.7087 547.233 65.042 547.46C65.3754 547.673 65.762 547.78 66.202 547.78ZM81.5102 549H79.6902V544.24C79.6902 543.44 79.7168 542.68 79.7702 541.96C79.8235 541.24 79.8702 540.767 79.9102 540.54L75.4902 549H73.3102V538.46H75.1302V543.22C75.1302 543.927 75.1035 544.66 75.0502 545.42C74.9968 546.167 74.9568 546.647 74.9302 546.86L79.2902 538.46H81.5102V549ZM93.2023 538.46L90.0023 543.34L93.5823 549H91.4023L88.4823 544.14H87.1423V549H85.3023V538.46H87.1423V542.7H88.5223L91.1823 538.46H93.2023ZM102.48 546.54C102.48 546.967 102.554 547.287 102.7 547.5C102.847 547.7 103.067 547.853 103.36 547.96L102.94 549.24C102.394 549.173 101.954 549.02 101.62 548.78C101.287 548.54 101.04 548.167 100.88 547.66C100.174 548.713 99.1271 549.24 97.7405 549.24C96.7005 549.24 95.8805 548.947 95.2805 548.36C94.6805 547.773 94.3805 547.007 94.3805 546.06C94.3805 544.94 94.7805 544.08 95.5805 543.48C96.3938 542.88 97.5405 542.58 99.0205 542.58H100.64V541.8C100.64 541.053 100.46 540.52 100.1 540.2C99.7405 539.88 99.1871 539.72 98.4405 539.72C97.6671 539.72 96.7205 539.907 95.6005 540.28L95.1405 538.94C96.4471 538.46 97.6605 538.22 98.7805 538.22C100.02 538.22 100.947 538.527 101.56 539.14C102.174 539.74 102.48 540.6 102.48 541.72V546.54ZM98.1605 547.86C99.2138 547.86 100.04 547.313 100.64 546.22V543.8H99.2605C97.3138 543.8 96.3405 544.52 96.3405 545.96C96.3405 546.587 96.4938 547.06 96.8005 547.38C97.1071 547.7 97.5605 547.86 98.1605 547.86ZM114.159 547.52H115.759V552H114.259L113.959 549H106.259V538.46H108.099V547.5H112.319V538.46H114.159V547.52ZM126.159 549H124.339V544.24C124.339 543.44 124.365 542.68 124.419 541.96C124.472 541.24 124.519 540.767 124.559 540.54L120.139 549H117.959V538.46H119.779V543.22C119.779 543.927 119.752 544.66 119.699 545.42C119.645 546.167 119.605 546.647 119.579 546.86L123.939 538.46H126.159V549ZM137.171 538.46V549H135.331V544.96H133.031L130.811 549H128.751L131.271 544.54C130.031 543.953 129.411 543 129.411 541.68C129.411 540.64 129.784 539.847 130.531 539.3C131.277 538.74 132.324 538.46 133.671 538.46H137.171ZM135.331 543.56V539.88H133.631C132.871 539.88 132.297 540.027 131.911 540.32C131.537 540.6 131.351 541.053 131.351 541.68C131.351 542.347 131.524 542.827 131.871 543.12C132.231 543.413 132.804 543.56 133.591 543.56H135.331ZM148.259 535.22V549H146.359V535.22H148.259ZM155.658 534.98C156.578 534.98 157.364 535.113 158.018 535.38C158.671 535.633 159.304 536.033 159.918 536.58L158.878 537.74C158.358 537.327 157.844 537.027 157.338 536.84C156.844 536.64 156.311 536.54 155.738 536.54C155.018 536.54 154.424 536.707 153.958 537.04C153.491 537.373 153.258 537.86 153.258 538.5C153.258 538.9 153.338 539.24 153.498 539.52C153.658 539.787 153.951 540.033 154.378 540.26C154.818 540.487 155.451 540.727 156.278 540.98C157.144 541.247 157.864 541.533 158.438 541.84C159.011 542.147 159.471 542.573 159.818 543.12C160.178 543.653 160.358 544.333 160.358 545.16C160.358 545.96 160.158 546.667 159.758 547.28C159.371 547.893 158.804 548.373 158.058 548.72C157.324 549.067 156.451 549.24 155.438 549.24C153.531 549.24 151.971 548.647 150.758 547.46L151.798 546.3C152.358 546.753 152.924 547.1 153.498 547.34C154.071 547.567 154.711 547.68 155.418 547.68C156.271 547.68 156.978 547.473 157.538 547.06C158.098 546.633 158.378 546.02 158.378 545.22C158.378 544.767 158.291 544.393 158.118 544.1C157.944 543.793 157.644 543.52 157.218 543.28C156.804 543.04 156.198 542.8 155.398 542.56C153.984 542.133 152.951 541.62 152.298 541.02C151.644 540.42 151.318 539.607 151.318 538.58C151.318 537.887 151.498 537.267 151.858 536.72C152.231 536.173 152.744 535.747 153.398 535.44C154.064 535.133 154.818 534.98 155.658 534.98ZM168.076 534.98C169.236 534.98 170.25 535.26 171.116 535.82C171.996 536.367 172.676 537.173 173.156 538.24C173.65 539.307 173.896 540.6 173.896 542.12C173.896 543.613 173.65 544.893 173.156 545.96C172.676 547.027 171.996 547.84 171.116 548.4C170.25 548.96 169.236 549.24 168.076 549.24C166.916 549.24 165.896 548.967 165.016 548.42C164.15 547.873 163.47 547.067 162.976 546C162.496 544.933 162.256 543.647 162.256 542.14C162.256 540.66 162.496 539.38 162.976 538.3C163.47 537.22 164.156 536.4 165.036 535.84C165.916 535.267 166.93 534.98 168.076 534.98ZM168.076 536.54C166.876 536.54 165.943 536.993 165.276 537.9C164.61 538.807 164.276 540.22 164.276 542.14C164.276 544.047 164.61 545.447 165.276 546.34C165.956 547.233 166.89 547.68 168.076 547.68C170.61 547.68 171.876 545.827 171.876 542.12C171.876 538.4 170.61 536.54 168.076 536.54ZM185.477 535.42C186.89 535.42 187.964 535.887 188.697 536.82C189.43 537.74 189.797 539.007 189.797 540.62C189.797 542.447 189.55 543.92 189.057 545.04C188.564 546.147 187.81 547.033 186.797 547.7C185.784 548.353 184.41 548.933 182.677 549.44L182.257 548.06C184.044 547.553 185.41 546.867 186.357 546C187.317 545.133 187.83 543.98 187.897 542.54C187.59 543.02 187.177 543.407 186.657 543.7C186.137 543.993 185.55 544.14 184.897 544.14C184.204 544.14 183.577 543.967 183.017 543.62C182.457 543.26 182.01 542.76 181.677 542.12C181.357 541.467 181.197 540.707 181.197 539.84C181.197 538.933 181.39 538.147 181.777 537.48C182.164 536.813 182.677 536.307 183.317 535.96C183.97 535.6 184.69 535.42 185.477 535.42ZM185.277 542.7C186.33 542.7 187.217 542.147 187.937 541.04C187.964 539.56 187.777 538.5 187.377 537.86C186.99 537.207 186.37 536.88 185.517 536.88C184.73 536.88 184.124 537.14 183.697 537.66C183.27 538.18 183.057 538.92 183.057 539.88C183.057 540.813 183.257 541.52 183.657 542C184.057 542.467 184.597 542.7 185.277 542.7ZM196.385 535.42C197.865 535.42 198.978 536.013 199.725 537.2C200.485 538.373 200.865 540.08 200.865 542.32C200.865 544.56 200.485 546.273 199.725 547.46C198.978 548.647 197.865 549.24 196.385 549.24C194.905 549.24 193.785 548.647 193.025 547.46C192.278 546.273 191.905 544.56 191.905 542.32C191.905 540.08 192.278 538.373 193.025 537.2C193.785 536.013 194.905 535.42 196.385 535.42ZM196.385 536.88C195.518 536.88 194.871 537.307 194.445 538.16C194.031 539.013 193.825 540.4 193.825 542.32C193.825 544.24 194.031 545.633 194.445 546.5C194.871 547.353 195.518 547.78 196.385 547.78C197.238 547.78 197.878 547.353 198.305 546.5C198.731 545.633 198.945 544.24 198.945 542.32C198.945 540.413 198.731 539.033 198.305 538.18C197.878 537.313 197.238 536.88 196.385 536.88ZM207.537 535.42C209.017 535.42 210.13 536.013 210.877 537.2C211.637 538.373 212.017 540.08 212.017 542.32C212.017 544.56 211.637 546.273 210.877 547.46C210.13 548.647 209.017 549.24 207.537 549.24C206.057 549.24 204.937 548.647 204.177 547.46C203.43 546.273 203.057 544.56 203.057 542.32C203.057 540.08 203.43 538.373 204.177 537.2C204.937 536.013 206.057 535.42 207.537 535.42ZM207.537 536.88C206.67 536.88 206.024 537.307 205.597 538.16C205.184 539.013 204.977 540.4 204.977 542.32C204.977 544.24 205.184 545.633 205.597 546.5C206.024 547.353 206.67 547.78 207.537 547.78C208.39 547.78 209.03 547.353 209.457 546.5C209.884 545.633 210.097 544.24 210.097 542.32C210.097 540.413 209.884 539.033 209.457 538.18C209.03 537.313 208.39 536.88 207.537 536.88ZM219.062 535.62V549H217.222V537.58L214.102 539.48L213.302 538.18L217.442 535.62H219.062Z" fill="black"/>
<path d="M6.82 3.98C7.64667 3.98 8.34 4.08667 8.9 4.3C9.47333 4.51333 10.0533 4.86 10.64 5.34L9.6 6.56C8.76 5.88 7.87333 5.54 6.94 5.54C5.79333 5.54 4.86667 5.98 4.16 6.86C3.46667 7.74 3.12 9.15333 3.12 11.1C3.12 12.9933 3.46667 14.3933 4.16 15.3C4.85333 16.1933 5.77333 16.64 6.92 16.64C7.50667 16.64 8.02 16.54 8.46 16.34C8.9 16.14 9.36667 15.86 9.86 15.5L10.8 16.7C10.3733 17.14 9.82667 17.5067 9.16 17.8C8.49333 18.0933 7.72667 18.24 6.86 18.24C5.74 18.24 4.74 17.9667 3.86 17.42C2.99333 16.86 2.31333 16.0467 1.82 14.98C1.34 13.9 1.1 12.6067 1.1 11.1C1.1 9.59333 1.35333 8.30667 1.86 7.24C2.36667 6.16 3.05333 5.34667 3.92 4.8C4.78667 4.25333 5.75333 3.98 6.82 3.98ZM16.6608 7.22C18.1408 7.22 19.2874 7.71333 20.1008 8.7C20.9274 9.68667 21.3408 11.0267 21.3408 12.72C21.3408 13.8133 21.1541 14.78 20.7808 15.62C20.4074 16.4467 19.8674 17.0933 19.1608 17.56C18.4541 18.0133 17.6141 18.24 16.6408 18.24C15.1608 18.24 14.0074 17.7467 13.1808 16.76C12.3541 15.7733 11.9408 14.4333 11.9408 12.74C11.9408 11.6467 12.1274 10.6867 12.5008 9.86C12.8741 9.02 13.4141 8.37333 14.1208 7.92C14.8274 7.45333 15.6741 7.22 16.6608 7.22ZM16.6608 8.7C14.8341 8.7 13.9208 10.0467 13.9208 12.74C13.9208 15.42 14.8274 16.76 16.6408 16.76C18.4541 16.76 19.3608 15.4133 19.3608 12.72C19.3608 10.04 18.4608 8.7 16.6608 8.7ZM28.9805 8.14C30.1805 8.14 31.1338 8.57333 31.8405 9.44C32.5605 10.3067 32.9205 11.4867 32.9205 12.98C32.9205 14.6467 32.5005 15.94 31.6605 16.86C30.8205 17.78 29.6938 18.24 28.2805 18.24C26.8671 18.24 25.7338 17.74 24.8805 16.74C24.0405 15.74 23.6205 14.2267 23.6205 12.2C23.6205 10.6667 23.7338 9.41333 23.9605 8.44C24.2005 7.45333 24.6071 6.64667 25.1805 6.02C25.7671 5.38 26.5871 4.88 27.6405 4.52C28.4271 4.25333 29.0538 4.01333 29.5205 3.8C30.0005 3.58667 30.4871 3.31333 30.9805 2.98L31.7605 4.36C31.2938 4.65333 30.8071 4.92667 30.3005 5.18C29.8071 5.42 29.2138 5.65333 28.5205 5.88C27.8538 6.10667 27.3271 6.36667 26.9405 6.66C26.5538 6.94 26.2405 7.35333 26.0005 7.9C25.7738 8.43333 25.6205 9.16667 25.5405 10.1C25.9138 9.48667 26.3938 9.00667 26.9805 8.66C27.5671 8.31333 28.2338 8.14 28.9805 8.14ZM28.2805 16.76C29.0938 16.76 29.7405 16.4867 30.2205 15.94C30.7005 15.38 30.9405 14.4133 30.9405 13.04C30.9405 11.8267 30.7405 10.9533 30.3405 10.42C29.9538 9.88667 29.3871 9.62 28.6405 9.62C28.0271 9.62 27.4538 9.78667 26.9205 10.12C26.3871 10.44 25.9471 10.9333 25.6005 11.6V12.88C25.6005 14.12 25.8338 15.08 26.3005 15.76C26.7805 16.4267 27.4405 16.76 28.2805 16.76ZM39.8025 7.22C40.4292 7.22 41.0025 7.31333 41.5225 7.5C42.0425 7.67333 42.5425 7.96 43.0225 8.36L42.1425 9.52C41.7692 9.25333 41.4025 9.06 41.0425 8.94C40.6958 8.80667 40.3092 8.74 39.8825 8.74C39.0292 8.74 38.3625 9.08 37.8825 9.76C37.4158 10.44 37.1825 11.4467 37.1825 12.78C37.1825 14.1133 37.4158 15.1 37.8825 15.74C38.3492 16.3667 39.0158 16.68 39.8825 16.68C40.2958 16.68 40.6758 16.62 41.0225 16.5C41.3692 16.3667 41.7558 16.16 42.1825 15.88L43.0225 17.08C42.0625 17.8533 40.9892 18.24 39.8025 18.24C38.3758 18.24 37.2492 17.76 36.4225 16.8C35.6092 15.84 35.2025 14.5133 35.2025 12.82C35.2025 11.7 35.3892 10.72 35.7625 9.88C36.1358 9.04 36.6625 8.38667 37.3425 7.92C38.0358 7.45333 38.8558 7.22 39.8025 7.22ZM52.6333 7.46L52.4133 8.96H49.0333V18H47.1933V8.96H43.7133V7.46H52.6333ZM60.0967 12.28C61.8834 12.4533 62.7767 13.28 62.7767 14.76C62.7767 15.8667 62.3701 16.6867 61.5567 17.22C60.7567 17.74 59.6834 18 58.3367 18H54.5367V7.6C55.7767 7.34667 56.9301 7.22 57.9967 7.22C59.3034 7.22 60.3367 7.46667 61.0967 7.96C61.8567 8.45333 62.2367 9.16 62.2367 10.08C62.2367 10.68 62.0567 11.1667 61.6967 11.54C61.3367 11.9133 60.8034 12.16 60.0967 12.28ZM58.0167 8.64C57.4567 8.64 56.9101 8.68 56.3767 8.76V11.74H58.3567C58.9967 11.74 59.4901 11.62 59.8367 11.38C60.1834 11.14 60.3567 10.7333 60.3567 10.16C60.3567 9.62667 60.1634 9.24 59.7767 9C59.3901 8.76 58.8034 8.64 58.0167 8.64ZM58.3367 16.56C59.1234 16.56 59.7367 16.4267 60.1767 16.16C60.6167 15.8933 60.8367 15.4133 60.8367 14.72C60.8367 14.1467 60.6501 13.7333 60.2767 13.48C59.9034 13.2267 59.2701 13.1 58.3767 13.1H56.3767V16.56H58.3367ZM73.7077 12.42C73.7077 12.7267 73.6943 13.04 73.6677 13.36H66.9477C67.0277 14.52 67.321 15.3733 67.8277 15.92C68.3343 16.4667 68.9877 16.74 69.7877 16.74C70.2943 16.74 70.761 16.6667 71.1877 16.52C71.6143 16.3733 72.061 16.14 72.5277 15.82L73.3277 16.92C72.2077 17.8 70.981 18.24 69.6477 18.24C68.181 18.24 67.0343 17.76 66.2077 16.8C65.3943 15.84 64.9877 14.52 64.9877 12.84C64.9877 11.7467 65.161 10.78 65.5077 9.94C65.8677 9.08667 66.3743 8.42 67.0277 7.94C67.6943 7.46 68.4743 7.22 69.3677 7.22C70.7677 7.22 71.841 7.68 72.5877 8.6C73.3343 9.52 73.7077 10.7933 73.7077 12.42ZM71.8877 11.88C71.8877 10.84 71.681 10.0467 71.2677 9.5C70.8543 8.95333 70.2343 8.68 69.4077 8.68C67.901 8.68 67.081 9.78667 66.9477 12H71.8877V11.88ZM82.8661 18V13.36H78.4861V18H76.6461V7.46H78.4861V11.88H82.8661V7.46H84.7061V18H82.8661ZM94.7216 18V13.36H90.3416V18H88.5016V7.46H90.3416V11.88H94.7216V7.46H96.5616V18H94.7216ZM104.317 7.22C105.797 7.22 106.944 7.71333 107.757 8.7C108.584 9.68667 108.997 11.0267 108.997 12.72C108.997 13.8133 108.81 14.78 108.437 15.62C108.064 16.4467 107.524 17.0933 106.817 17.56C106.11 18.0133 105.27 18.24 104.297 18.24C102.817 18.24 101.664 17.7467 100.837 16.76C100.01 15.7733 99.597 14.4333 99.597 12.74C99.597 11.6467 99.7837 10.6867 100.157 9.86C100.53 9.02 101.07 8.37333 101.777 7.92C102.484 7.45333 103.33 7.22 104.317 7.22ZM104.317 8.7C102.49 8.7 101.577 10.0467 101.577 12.74C101.577 15.42 102.484 16.76 104.297 16.76C106.11 16.76 107.017 15.4133 107.017 12.72C107.017 10.04 106.117 8.7 104.317 8.7ZM119.997 12.42C119.997 12.7267 119.983 13.04 119.957 13.36H113.237C113.317 14.52 113.61 15.3733 114.117 15.92C114.623 16.4667 115.277 16.74 116.077 16.74C116.583 16.74 117.05 16.6667 117.477 16.52C117.903 16.3733 118.35 16.14 118.817 15.82L119.617 16.92C118.497 17.8 117.27 18.24 115.937 18.24C114.47 18.24 113.323 17.76 112.497 16.8C111.683 15.84 111.277 14.52 111.277 12.84C111.277 11.7467 111.45 10.78 111.797 9.94C112.157 9.08667 112.663 8.42 113.317 7.94C113.983 7.46 114.763 7.22 115.657 7.22C117.057 7.22 118.13 7.68 118.877 8.6C119.623 9.52 119.997 10.7933 119.997 12.42ZM118.177 11.88C118.177 10.84 117.97 10.0467 117.557 9.5C117.143 8.95333 116.523 8.68 115.697 8.68C114.19 8.68 113.37 9.78667 113.237 12H118.177V11.88ZM134.388 18V8.96H130.068V18H128.228V7.46H136.228V18H134.388ZM144.865 7.22C146.212 7.22 147.198 7.7 147.825 8.66C148.452 9.62 148.765 10.9733 148.765 12.72C148.765 14.3733 148.405 15.7067 147.685 16.72C146.965 17.7333 145.945 18.24 144.625 18.24C143.452 18.24 142.532 17.84 141.865 17.04V22.04L140.025 22.26V7.46H141.605L141.745 8.88C142.132 8.34667 142.598 7.94 143.145 7.66C143.692 7.36667 144.265 7.22 144.865 7.22ZM144.185 16.74C145.918 16.74 146.785 15.4 146.785 12.72C146.785 10.0267 145.992 8.68 144.405 8.68C143.885 8.68 143.412 8.83333 142.985 9.14C142.558 9.44667 142.185 9.84 141.865 10.32V15.46C142.132 15.8733 142.465 16.1933 142.865 16.42C143.265 16.6333 143.705 16.74 144.185 16.74ZM155.86 7.22C157.34 7.22 158.487 7.71333 159.3 8.7C160.127 9.68667 160.54 11.0267 160.54 12.72C160.54 13.8133 160.353 14.78 159.98 15.62C159.607 16.4467 159.067 17.0933 158.36 17.56C157.653 18.0133 156.813 18.24 155.84 18.24C154.36 18.24 153.207 17.7467 152.38 16.76C151.553 15.7733 151.14 14.4333 151.14 12.74C151.14 11.6467 151.327 10.6867 151.7 9.86C152.073 9.02 152.613 8.37333 153.32 7.92C154.027 7.45333 154.873 7.22 155.86 7.22ZM155.86 8.7C154.033 8.7 153.12 10.0467 153.12 12.74C153.12 15.42 154.027 16.76 155.84 16.76C157.653 16.76 158.56 15.4133 158.56 12.72C158.56 10.04 157.66 8.7 155.86 8.7ZM171.78 18H169.96V13.24C169.96 12.44 169.986 11.68 170.04 10.96C170.093 10.24 170.14 9.76667 170.18 9.54L165.76 18H163.58V7.46H165.4V12.22C165.4 12.9267 165.373 13.66 165.32 14.42C165.266 15.1667 165.226 15.6467 165.2 15.86L169.56 7.46H171.78V18ZM178.172 7.22C178.839 7.22 179.459 7.33333 180.032 7.56C180.619 7.77333 181.085 8.09333 181.432 8.52C181.792 8.94667 181.972 9.46 181.972 10.06C181.972 10.6467 181.799 11.1267 181.452 11.5C181.119 11.8733 180.585 12.16 179.852 12.36C180.732 12.5067 181.399 12.78 181.852 13.18C182.305 13.58 182.532 14.1533 182.532 14.9C182.532 15.9933 182.105 16.8267 181.252 17.4C180.412 17.96 179.339 18.24 178.032 18.24C176.445 18.24 175.092 17.8 173.972 16.92L174.932 15.78C175.399 16.1133 175.865 16.36 176.332 16.52C176.812 16.68 177.359 16.76 177.972 16.76C179.692 16.76 180.552 16.1333 180.552 14.88C180.552 14.2667 180.305 13.84 179.812 13.6C179.332 13.3467 178.659 13.22 177.792 13.22H176.392L176.512 11.78H177.592C178.339 11.78 178.939 11.6467 179.392 11.38C179.845 11.1133 180.072 10.7 180.072 10.14C180.072 9.62 179.879 9.24667 179.492 9.02C179.105 8.78 178.599 8.66 177.972 8.66C177.425 8.66 176.939 8.73333 176.512 8.88C176.099 9.01333 175.679 9.22667 175.252 9.52L174.372 8.42C174.905 8.02 175.479 7.72 176.092 7.52C176.705 7.32 177.399 7.22 178.172 7.22ZM191.132 12.28C192.919 12.4533 193.812 13.28 193.812 14.76C193.812 15.8667 193.405 16.6867 192.592 17.22C191.792 17.74 190.719 18 189.372 18H185.572V7.6C186.812 7.34667 187.965 7.22 189.032 7.22C190.339 7.22 191.372 7.46667 192.132 7.96C192.892 8.45333 193.272 9.16 193.272 10.08C193.272 10.68 193.092 11.1667 192.732 11.54C192.372 11.9133 191.839 12.16 191.132 12.28ZM189.052 8.64C188.492 8.64 187.945 8.68 187.412 8.76V11.74H189.392C190.032 11.74 190.525 11.62 190.872 11.38C191.219 11.14 191.392 10.7333 191.392 10.16C191.392 9.62667 191.199 9.24 190.812 9C190.425 8.76 189.839 8.64 189.052 8.64ZM189.372 16.56C190.159 16.56 190.772 16.4267 191.212 16.16C191.652 15.8933 191.872 15.4133 191.872 14.72C191.872 14.1467 191.685 13.7333 191.312 13.48C190.939 13.2267 190.305 13.1 189.412 13.1H187.412V16.56H189.372ZM200.743 7.22C202.223 7.22 203.369 7.71333 204.183 8.7C205.009 9.68667 205.423 11.0267 205.423 12.72C205.423 13.8133 205.236 14.78 204.863 15.62C204.489 16.4467 203.949 17.0933 203.243 17.56C202.536 18.0133 201.696 18.24 200.723 18.24C199.243 18.24 198.089 17.7467 197.263 16.76C196.436 15.7733 196.023 14.4333 196.023 12.74C196.023 11.6467 196.209 10.6867 196.583 9.86C196.956 9.02 197.496 8.37333 198.203 7.92C198.909 7.45333 199.756 7.22 200.743 7.22ZM200.743 8.7C198.916 8.7 198.003 10.0467 198.003 12.74C198.003 15.42 198.909 16.76 200.723 16.76C202.536 16.76 203.443 15.4133 203.443 12.72C203.443 10.04 202.543 8.7 200.743 8.7ZM216.727 16.52V21H215.227L214.927 18H208.167L207.867 21H206.367V16.52H207.107C207.427 16.3067 207.681 16.0667 207.867 15.8C208.054 15.52 208.221 15.04 208.367 14.36C208.527 13.68 208.654 12.6867 208.747 11.38L209.027 7.46H215.627V16.52H216.727ZM213.787 8.92H210.687L210.527 11.14C210.434 12.38 210.327 13.3333 210.207 14C210.087 14.6667 209.914 15.18 209.687 15.54C209.474 15.9 209.161 16.2267 208.747 16.52H213.787V8.92ZM223.22 7.22C223.847 7.22 224.42 7.31333 224.94 7.5C225.46 7.67333 225.96 7.96 226.44 8.36L225.56 9.52C225.187 9.25333 224.82 9.06 224.46 8.94C224.114 8.80667 223.727 8.74 223.3 8.74C222.447 8.74 221.78 9.08 221.3 9.76C220.834 10.44 220.6 11.4467 220.6 12.78C220.6 14.1133 220.834 15.1 221.3 15.74C221.767 16.3667 222.434 16.68 223.3 16.68C223.714 16.68 224.094 16.62 224.44 16.5C224.787 16.3667 225.174 16.16 225.6 15.88L226.44 17.08C225.48 17.8533 224.407 18.24 223.22 18.24C221.794 18.24 220.667 17.76 219.84 16.8C219.027 15.84 218.62 14.5133 218.62 12.82C218.62 11.7 218.807 10.72 219.18 9.88C219.554 9.04 220.08 8.38667 220.76 7.92C221.454 7.45333 222.274 7.22 223.22 7.22ZM236.051 7.46L235.831 8.96H232.451V18H230.611V8.96H227.131V7.46H236.051ZM243.515 12.28C245.301 12.4533 246.195 13.28 246.195 14.76C246.195 15.8667 245.788 16.6867 244.975 17.22C244.175 17.74 243.101 18 241.755 18H237.955V7.6C239.195 7.34667 240.348 7.22 241.415 7.22C242.721 7.22 243.755 7.46667 244.515 7.96C245.275 8.45333 245.655 9.16 245.655 10.08C245.655 10.68 245.475 11.1667 245.115 11.54C244.755 11.9133 244.221 12.16 243.515 12.28ZM241.435 8.64C240.875 8.64 240.328 8.68 239.795 8.76V11.74H241.775C242.415 11.74 242.908 11.62 243.255 11.38C243.601 11.14 243.775 10.7333 243.775 10.16C243.775 9.62667 243.581 9.24 243.195 9C242.808 8.76 242.221 8.64 241.435 8.64ZM241.755 16.56C242.541 16.56 243.155 16.4267 243.595 16.16C244.035 15.8933 244.255 15.4133 244.255 14.72C244.255 14.1467 244.068 13.7333 243.695 13.48C243.321 13.2267 242.688 13.1 241.795 13.1H239.795V16.56H241.755ZM253.126 7.22C254.606 7.22 255.752 7.71333 256.566 8.7C257.392 9.68667 257.806 11.0267 257.806 12.72C257.806 13.8133 257.619 14.78 257.246 15.62C256.872 16.4467 256.332 17.0933 255.626 17.56C254.919 18.0133 254.079 18.24 253.106 18.24C251.626 18.24 250.472 17.7467 249.646 16.76C248.819 15.7733 248.406 14.4333 248.406 12.74C248.406 11.6467 248.592 10.6867 248.966 9.86C249.339 9.02 249.879 8.37333 250.586 7.92C251.292 7.45333 252.139 7.22 253.126 7.22ZM253.126 8.7C251.299 8.7 250.386 10.0467 250.386 12.74C250.386 15.42 251.292 16.76 253.106 16.76C254.919 16.76 255.826 15.4133 255.826 12.72C255.826 10.04 254.926 8.7 253.126 8.7ZM8.06 40V30.96H3.74V40H1.9V29.46H9.9V40H8.06ZM17.6569 29.22C19.1369 29.22 20.2835 29.7133 21.0969 30.7C21.9235 31.6867 22.3369 33.0267 22.3369 34.72C22.3369 35.8133 22.1502 36.78 21.7769 37.62C21.4035 38.4467 20.8635 39.0933 20.1569 39.56C19.4502 40.0133 18.6102 40.24 17.6369 40.24C16.1569 40.24 15.0035 39.7467 14.1769 38.76C13.3502 37.7733 12.9369 36.4333 12.9369 34.74C12.9369 33.6467 13.1235 32.6867 13.4969 31.86C13.8702 31.02 14.4102 30.3733 15.1169 29.92C15.8235 29.4533 16.6702 29.22 17.6569 29.22ZM17.6569 30.7C15.8302 30.7 14.9169 32.0467 14.9169 34.74C14.9169 37.42 15.8235 38.76 17.6369 38.76C19.4502 38.76 20.3569 37.4133 20.3569 34.72C20.3569 32.04 19.4569 30.7 17.6569 30.7ZM32.9013 29.46V40H31.0613V30.96H27.8013L27.5013 34.48C27.3813 35.9067 27.2279 36.9733 27.0413 37.68C26.8679 38.3867 26.5879 38.9333 26.2013 39.32C25.8279 39.6933 25.2546 40 24.4813 40.24L24.0213 38.78C24.4746 38.62 24.7946 38.4133 24.9813 38.16C25.1679 37.9067 25.3079 37.52 25.4013 37C25.4946 36.48 25.5946 35.5733 25.7013 34.28L26.1213 29.46H32.9013ZM42.9247 40V35.36H38.5447V40H36.7047V29.46H38.5447V33.88H42.9247V29.46H44.7647V40H42.9247ZM52.5202 29.22C54.0002 29.22 55.1468 29.7133 55.9602 30.7C56.7868 31.6867 57.2002 33.0267 57.2002 34.72C57.2002 35.8133 57.0135 36.78 56.6402 37.62C56.2668 38.4467 55.7268 39.0933 55.0202 39.56C54.3135 40.0133 53.4735 40.24 52.5002 40.24C51.0202 40.24 49.8668 39.7467 49.0402 38.76C48.2135 37.7733 47.8002 36.4333 47.8002 34.74C47.8002 33.6467 47.9868 32.6867 48.3602 31.86C48.7335 31.02 49.2735 30.3733 49.9802 29.92C50.6868 29.4533 51.5335 29.22 52.5202 29.22ZM52.5202 30.7C50.6935 30.7 49.7802 32.0467 49.7802 34.74C49.7802 37.42 50.6868 38.76 52.5002 38.76C54.3135 38.76 55.2202 37.4133 55.2202 34.72C55.2202 32.04 54.3202 30.7 52.5202 30.7ZM62.0798 40H60.2398V29.46H66.8198L66.5798 30.98H62.0798V40ZM72.2663 29.22C73.7463 29.22 74.8929 29.7133 75.7063 30.7C76.5329 31.6867 76.9463 33.0267 76.9463 34.72C76.9463 35.8133 76.7596 36.78 76.3863 37.62C76.0129 38.4467 75.4729 39.0933 74.7663 39.56C74.0596 40.0133 73.2196 40.24 72.2463 40.24C70.7663 40.24 69.6129 39.7467 68.7863 38.76C67.9596 37.7733 67.5463 36.4333 67.5463 34.74C67.5463 33.6467 67.7329 32.6867 68.1063 31.86C68.4796 31.02 69.0196 30.3733 69.7263 29.92C70.4329 29.4533 71.2796 29.22 72.2663 29.22ZM72.2663 30.7C70.4396 30.7 69.5263 32.0467 69.5263 34.74C69.5263 37.42 70.4329 38.76 72.2463 38.76C74.0596 38.76 74.9663 37.4133 74.9663 34.72C74.9663 32.04 74.0663 30.7 72.2663 30.7ZM93.1789 38.52H94.7789V43H93.2789L92.9789 40H85.2789V29.46H87.1189V38.5H91.3389V29.46H93.1789V38.52ZM105.178 40H103.358V35.24C103.358 34.44 103.385 33.68 103.438 32.96C103.491 32.24 103.538 31.7667 103.578 31.54L99.1581 40H96.9781V29.46H98.7981V34.22C98.7981 34.9267 98.7715 35.66 98.7181 36.42C98.6648 37.1667 98.6248 37.6467 98.5981 37.86L102.958 29.46H105.178V40ZM116.87 29.46L113.67 34.34L117.25 40H115.07L112.15 35.14H110.81V40H108.97V29.46H110.81V33.7H112.19L114.85 29.46H116.87ZM127.061 29.46V40H125.221V30.96H121.961L121.661 34.48C121.541 35.9067 121.388 36.9733 121.201 37.68C121.028 38.3867 120.748 38.9333 120.361 39.32C119.988 39.6933 119.415 40 118.641 40.24L118.181 38.78C118.635 38.62 118.955 38.4133 119.141 38.16C119.328 37.9067 119.468 37.52 119.561 37C119.655 36.48 119.755 35.5733 119.861 34.28L120.281 29.46H127.061ZM137.965 37.54C137.965 37.9667 138.038 38.2867 138.185 38.5C138.332 38.7 138.552 38.8533 138.845 38.96L138.425 40.24C137.878 40.1733 137.438 40.02 137.105 39.78C136.772 39.54 136.525 39.1667 136.365 38.66C135.658 39.7133 134.612 40.24 133.225 40.24C132.185 40.24 131.365 39.9467 130.765 39.36C130.165 38.7733 129.865 38.0067 129.865 37.06C129.865 35.94 130.265 35.08 131.065 34.48C131.878 33.88 133.025 33.58 134.505 33.58H136.125V32.8C136.125 32.0533 135.945 31.52 135.585 31.2C135.225 30.88 134.672 30.72 133.925 30.72C133.152 30.72 132.205 30.9067 131.085 31.28L130.625 29.94C131.932 29.46 133.145 29.22 134.265 29.22C135.505 29.22 136.432 29.5267 137.045 30.14C137.658 30.74 137.965 31.6 137.965 32.72V37.54ZM133.645 38.86C134.698 38.86 135.525 38.3133 136.125 37.22V34.8H134.745C132.798 34.8 131.825 35.52 131.825 36.96C131.825 37.5867 131.978 38.06 132.285 38.38C132.592 38.7 133.045 38.86 133.645 38.86Z" fill="black"/>
</svg>
