<svg width="18" height="18" viewBox="0 0 18 18" fill="none" xmlns="http://www.w3.org/2000/svg">
<path d="M0 3.21429C0 2.68173 0.402944 2.25 0.9 2.25H17.1C17.5971 2.25 18 2.68173 18 3.21429C18 3.74685 17.5971 4.17857 17.1 4.17857H0.9C0.402944 4.17857 0 3.74685 0 3.21429Z" fill="black"/>
<path d="M0 9C0 8.46744 0.402944 8.03571 0.9 8.03571H17.1C17.5971 8.03571 18 8.46744 18 9C18 9.53256 17.5971 9.96429 17.1 9.96429H0.9C0.402944 9.96429 0 9.53256 0 9Z" fill="black"/>
<path d="M0.9 13.8214C0.402944 13.8214 0 14.2532 0 14.7857C0 15.3183 0.402944 15.75 0.9 15.75H17.1C17.5971 15.75 18 15.3183 18 14.7857C18 14.2532 17.5971 13.8214 17.1 13.8214H0.9Z" fill="black"/>
</svg>
